<svg width="32" height="32" viewBox="0 0 32 32" fill="none" xmlns="http://www.w3.org/2000/svg">
<g clip-path="url(#clip0_985_2231)">
<path d="M2.82031 10.6698C3.27334 10.6698 3.64063 10.3025 3.64063 9.84946V3.64063H9.84946C10.3025 3.64063 10.6698 3.27334 10.6698 2.82031C10.6698 2.36728 10.3025 2 9.84946 2H2.82031C2.36728 2 2 2.36728 2 2.82031V9.84946C2 10.3025 2.36728 10.6698 2.82031 10.6698Z" fill="#0076FF"/>
<path d="M9.84946 28.3595H3.64063V22.1506C3.64063 21.6976 3.27334 21.3303 2.82031 21.3303C2.36728 21.3303 2 21.6976 2 22.1506V29.1798C2 29.6328 2.36728 30.0001 2.82031 30.0001H9.84946C10.3025 30.0001 10.6698 29.6328 10.6698 29.1798C10.6698 28.7268 10.3025 28.3595 9.84946 28.3595Z" fill="#0076FF"/>
<path d="M29.1797 2H22.1505C21.6975 2 21.3302 2.36728 21.3302 2.82031C21.3302 3.27334 21.6975 3.64063 22.1505 3.64063H28.3594V9.84946C28.3594 10.3025 28.7267 10.6698 29.1797 10.6698C29.6327 10.6698 30 10.3025 30 9.84946V2.82031C30 2.36728 29.6327 2 29.1797 2Z" fill="#0076FF"/>
<path d="M29.1797 21.3303C28.7267 21.3303 28.3594 21.6976 28.3594 22.1506V28.3595H22.1505C21.6975 28.3595 21.3302 28.7268 21.3302 29.1798C21.3302 29.6328 21.6975 30.0001 22.1505 30.0001H29.1797C29.6327 30.0001 30 29.6328 30 29.1798V22.1506C30 21.6976 29.6327 21.3303 29.1797 21.3303Z" fill="#0076FF"/>
<path d="M29.1797 13.4224C23.741 13.4224 20.7148 17.8157 19.5146 17.8157C19.0315 17.8157 19.2913 16.6342 19.4142 16.2594C19.5911 15.7287 19.1954 15.1797 18.636 15.1797C17.8938 15.1797 17.3219 15.8497 16.5304 16.7769C15.8787 17.5405 14.8938 18.6943 14.2427 18.6943C13.1848 18.6943 14.6703 15.2259 14.9764 14.6096C15.1036 14.3554 15.09 14.0533 14.9405 13.8115C14.7911 13.5696 14.527 13.4224 14.2427 13.4224C13.4406 13.4224 12.923 14.2534 11.0704 17.4305C10.3377 18.6871 9.50723 20.1113 8.75227 21.2271C7.92326 22.4523 7.46919 22.8777 7.2687 23.0232C7.04716 22.3999 7.07948 20.4053 8.18461 16.6473C9.12808 13.439 10.4709 10.3883 11.3081 9.55095C11.6285 9.23059 11.6285 8.71122 11.3081 8.39086C10.9878 8.07056 10.4684 8.07056 10.1481 8.39086C8.91928 9.61964 7.54542 13.1207 6.74234 15.7455C5.0298 21.342 5.05315 24.7282 7.21352 24.7282C8.52947 24.7282 9.84891 22.7669 12.2815 18.6098C12.4415 19.7704 13.2468 20.3349 14.2427 20.3349C15.5943 20.3349 16.7358 19.0607 17.6638 17.9761C17.7503 18.3677 18.1085 19.4563 19.5146 19.4563C21.8022 19.4563 24.0929 15.063 29.1797 15.063C29.6327 15.063 30 14.6957 30 14.2427C30 13.7897 29.6327 13.4224 29.1797 13.4224Z" fill="#0076FF"/>
</g>
<defs>
<clipPath id="clip0_985_2231">
<rect width="28" height="28" fill="white" transform="translate(2 2)"/>
</clipPath>
</defs>
</svg>
